<svg id="Capa_1" data-name="Capa 1" xmlns="http://www.w3.org/2000/svg" xmlns:xlink="http://www.w3.org/1999/xlink" viewBox="0 0 490.67 494.15"><defs><style>.cls-1,.cls-3,.cls-4{fill:none;}.cls-2{clip-path:url(#clip-path);}.cls-3{stroke:#c64832;}.cls-3,.cls-4{stroke-miterlimit:10;stroke-width:4.71px;}.cls-4{stroke:url(#Degradado_sin_nombre);}</style><clipPath id="clip-path"><rect class="cls-1" x="1.67" width="489" height="492.49" rx="62.31"/></clipPath><linearGradient id="Degradado_sin_nombre" x1="-197.16" y1="-1073.6" x2="506.58" y2="-369.86" gradientTransform="translate(94.12 509.66)" gradientUnits="userSpaceOnUse"><stop offset="0.1" stop-color="#75d674"/><stop offset="1" stop-color="#459fb4"/></linearGradient></defs><title>card3</title><g class="cls-2"><line class="cls-3" x1="-101.78" y1="353.96" x2="599.44" y2="1060.18"/><line class="cls-3" x1="-101.78" y1="332.59" x2="599.44" y2="1038.81"/><line class="cls-3" x1="-101.78" y1="311.21" x2="599.44" y2="1017.43"/><line class="cls-3" x1="-101.78" y1="289.84" x2="599.44" y2="996.06"/><line class="cls-3" x1="-101.78" y1="268.46" x2="599.44" y2="974.68"/><line class="cls-3" x1="-101.78" y1="247.08" x2="599.44" y2="953.31"/><line class="cls-3" x1="-101.78" y1="225.71" x2="599.44" y2="931.93"/><line class="cls-3" x1="-101.78" y1="204.33" x2="599.44" y2="910.55"/><line class="cls-3" x1="-101.78" y1="182.96" x2="599.44" y2="889.18"/><line class="cls-3" x1="-101.78" y1="161.58" x2="599.44" y2="867.8"/><line class="cls-3" x1="-101.78" y1="140.21" x2="599.44" y2="846.43"/><line class="cls-3" x1="-101.78" y1="118.83" x2="599.44" y2="825.05"/><line class="cls-3" x1="-101.78" y1="97.46" x2="599.44" y2="803.68"/><line class="cls-3" x1="-101.78" y1="76.08" x2="599.44" y2="782.3"/><line class="cls-3" x1="-101.78" y1="54.71" x2="599.44" y2="760.93"/><line class="cls-3" x1="-101.78" y1="33.33" x2="599.44" y2="739.55"/><line class="cls-3" x1="-101.78" y1="11.96" x2="599.44" y2="718.18"/><line class="cls-3" x1="-101.78" y1="-9.42" x2="599.44" y2="696.8"/><line class="cls-3" x1="-101.78" y1="-30.8" x2="599.44" y2="675.42"/><line class="cls-3" x1="-101.78" y1="-52.17" x2="599.44" y2="654.05"/><line class="cls-3" x1="-101.78" y1="-73.55" x2="599.44" y2="632.67"/><line class="cls-3" x1="-101.78" y1="-94.92" x2="599.44" y2="611.3"/><line class="cls-3" x1="-101.78" y1="-116.3" x2="599.44" y2="589.92"/><line class="cls-3" x1="-101.78" y1="-137.67" x2="599.44" y2="568.55"/><line class="cls-3" x1="-101.78" y1="-159.05" x2="599.44" y2="547.17"/><line class="cls-3" x1="-101.78" y1="-180.42" x2="599.44" y2="525.8"/><line class="cls-3" x1="-101.78" y1="-201.8" x2="599.44" y2="504.42"/><line class="cls-3" x1="-101.78" y1="-223.17" x2="599.44" y2="483.05"/><line class="cls-3" x1="-101.78" y1="-244.55" x2="599.44" y2="461.67"/><line class="cls-3" x1="-101.78" y1="-265.92" x2="599.44" y2="440.3"/><line class="cls-3" x1="-101.78" y1="-287.3" x2="599.44" y2="418.92"/><line class="cls-3" x1="-101.78" y1="-308.68" x2="599.44" y2="397.54"/><line class="cls-3" x1="-101.78" y1="-330.05" x2="599.44" y2="376.17"/><line class="cls-3" x1="-101.78" y1="-351.43" x2="599.44" y2="354.79"/><line class="cls-3" x1="-101.78" y1="-372.8" x2="599.44" y2="333.42"/><line class="cls-3" x1="-101.78" y1="-394.18" x2="599.44" y2="312.04"/><line class="cls-3" x1="-101.78" y1="-415.55" x2="599.44" y2="290.67"/><line class="cls-3" x1="-101.78" y1="-436.93" x2="599.44" y2="269.29"/><line class="cls-3" x1="-101.78" y1="-458.3" x2="599.44" y2="247.92"/><line class="cls-3" x1="-101.78" y1="-479.68" x2="599.44" y2="226.54"/><line class="cls-3" x1="-101.78" y1="-501.05" x2="599.44" y2="205.17"/><line class="cls-3" x1="-101.78" y1="-522.43" x2="599.44" y2="183.79"/><line class="cls-3" x1="-101.78" y1="-543.81" x2="599.44" y2="162.42"/><line class="cls-4" x1="-101.78" y1="-565.18" x2="599.44" y2="141.04"/></g></svg>