<?xml version="1.0" encoding="UTF-8"?>
<!DOCTYPE svg PUBLIC "-//W3C//DTD SVG 1.1//EN" "http://www.w3.org/Graphics/SVG/1.1/DTD/svg11.dtd">
<!-- Creator: CorelDRAW X8 -->
<svg xmlns="http://www.w3.org/2000/svg" xml:space="preserve" width="687.917mm" height="282.222mm" version="1.1" style="shape-rendering:geometricPrecision; text-rendering:geometricPrecision; image-rendering:optimizeQuality; fill-rule:evenodd; clip-rule:evenodd"
viewBox="0 0 68792 28222"
 xmlns:xlink="http://www.w3.org/1999/xlink">
 <defs>
  <style type="text/css">
   <![CDATA[
    .str0 {stroke:white;stroke-width:20}
    .fil6 {fill:none}
    .fil0 {fill:white}
    .fil7 {fill:white}
    .fil4 {fill:url(#id1)}
    .fil2 {fill:url(#id2)}
    .fil1 {fill:url(#id3)}
    .fil5 {fill:url(#id4)}
    .fil3 {fill:url(#id5)}
   ]]>
  </style>
    <clipPath id="id0">
     <path d="M60 28503l68810 0 0 -28222 -68810 0 0 28222z"/>
    </clipPath>
  <linearGradient id="id1" gradientUnits="userSpaceOnUse" x1="-2.14176e+07" y1="-6.57705e+06" x2="-2.14176e+07" y2="-1.30578e+07">
   <stop offset="0" style="stop-opacity:1; stop-color:whitesmoke"/>
   <stop offset="1" style="stop-opacity:1; stop-color:#E5E5E5"/>
  </linearGradient>
  <linearGradient id="id2" gradientUnits="userSpaceOnUse" xlink:href="#id1" x1="-2.14261e+07" y1="8.97945e+06" x2="-2.14261e+07" y2="514895">
  </linearGradient>
  <linearGradient id="id3" gradientUnits="userSpaceOnUse" xlink:href="#id1" x1="34031.1" y1="2741.51" x2="41393" y2="-3484.47">
  </linearGradient>
  <linearGradient id="id4" gradientUnits="userSpaceOnUse" xlink:href="#id1" x1="5.58843e+06" y1="-1.93129e+06" x2="6.30081e+06" y2="-2.39551e+06">
  </linearGradient>
  <linearGradient id="id5" gradientUnits="userSpaceOnUse" xlink:href="#id1" x1="-4.55518e+06" y1="-1.21574e+06" x2="4.94065e+06" y2="-5.78794e+06">
  </linearGradient>
 </defs>
 <g id="Capa_x0020_1">
  <metadata id="CorelCorpID_0Corel-Layer"/>
  <g id="_2431699312432">
   <g>
   </g>
   <g>
   </g>
   <g style="clip-path:url(#id0)">
    <g id="_2396767338464">
     <rect class="fil0" x="-126" y="186" width="82224" height="34329"/>
     <ellipse class="fil1" cx="50960" cy="19840" rx="5348" ry="4245"/>
     <ellipse class="fil2" cx="65834" cy="34872" rx="17120" ry="9285"/>
     <ellipse class="fil3" cx="213" cy="15135" rx="13567" ry="6533"/>
     <ellipse class="fil4" cx="72578" cy="2197" rx="15321" ry="8023"/>
     <ellipse class="fil5" cx="37042" cy="7575" rx="3548" ry="2312"/>
    </g>
   </g>
   <polygon class="fil6" points="60,28503 68870,28503 68870,281 60,281 "/>
   <polygon class="fil6" points="60,28503 68870,28503 68870,281 60,281 "/>
  </g>
  <rect class="fil7 str0" x="52793" y="25012" width="16105" height="3492"/>
 </g>
</svg>
